<?xml version="1.0" encoding="utf-8"?>
<!-- Generator: Adobe Illustrator 27.7.0, SVG Export Plug-In . SVG Version: 6.00 Build 0)  -->
<svg version="1.1" id="Ebene_1" xmlns="http://www.w3.org/2000/svg" xmlns:xlink="http://www.w3.org/1999/xlink" x="0px" y="0px"
	 viewBox="0 0 467 446.4" style="enable-background:new 0 0 467 446.4;" xml:space="preserve">
<style type="text/css">
	.st0{fill:#FFFFFF;}
	.st1{fill:url(#SVGID_1_);}
	.st2{fill:url(#SVGID_00000042722987755891328470000006676252826113833858_);}
	.st3{fill:url(#SVGID_00000036218177921715859590000017632312314938556850_);}
	.st4{fill:url(#SVGID_00000167384749916208931570000008250939049885331611_);}
</style>
<path class="st0" d="M269.2,247.5h-75c-2.6,0-4.8-2.1-4.8-4.8l0,0c0-2.6,2.1-4.8,4.8-4.8h75c2.6,0,4.8,2.1,4.8,4.8l0,0
	C273.9,245.3,271.8,247.5,269.2,247.5z"/>
<path class="st0" d="M264.1,264.7h-64.6c-2.6,0-4.8-2.1-4.8-4.8l0,0c0-2.6,2.1-4.8,4.8-4.8h64.6c2.6,0,4.8,2.1,4.8,4.8l0,0
	C268.9,262.6,266.8,264.7,264.1,264.7z"/>
<path class="st0" d="M248,281.9h-32.6c-2.6,0-4.8-2.1-4.8-4.8l0,0c0-2.6,2.1-4.8,4.8-4.8H248c2.6,0,4.8,2.1,4.8,4.8l0,0
	C252.7,279.8,250.6,281.9,248,281.9z"/>
<linearGradient id="SVGID_1_" gradientUnits="userSpaceOnUse" x1="178.209" y1="-284.3715" x2="283.0576" y2="-284.3715" gradientTransform="matrix(1 0 0 -1 0 -118.5354)">
	<stop  offset="0" style="stop-color:#F20500"/>
	<stop  offset="2.272730e-04" style="stop-color:#F20500"/>
	<stop  offset="1" style="stop-color:#D90575"/>
</linearGradient>
<path class="st1" d="M282.5,161.3c-0.9-1.6-3.1-2.6-5.6-1.1c-0.7,0.4-1.3,0.8-2,1.2l-1.7,1c-7.7,4.4-14.1,6.7-20.6,7.4
	c-3.1,0.3-6.2,0.3-9.3-0.1c0-0.4-0.2-47.2-0.2-47.2c-0.1-3-0.4-5.9-0.9-8.8c-0.4-2.3-1.1-4.8-2.8-7c-1.5-1.9-3.2-2.5-4.3-2.7
	c-1.1-0.1-2.9,0-4.8,1.5c-1.8,1.4-2.9,3.2-3.8,4.8c-3.2,5.8-5.7,11.8-7.5,16.5c-3.3,8.3-7,15.7-11.3,22.6c-3.4-2-6.7-3.2-10.1-3.8
	c-5.4-0.8-10.1,0.2-14,3.1c-4.9,3.6-6.7,9.9-4.4,15.3c2.4,5.6,8.3,8.7,14.3,7.5c3.1-0.6,6.1-2,9-4.3c2.4-1.9,4.7-4.2,7-7.2
	c1,0.8,2,1.7,3,2.5c7.5,6.7,15,11.1,22.9,13.3v6.2c-0.1,5.1-0.1,9.8,0,14.1v0.1v5.5v0.1v22c0,2.2,1.8,3.9,3.9,3.9
	c2.2,0,3.9-1.8,3.9-3.9v-22c0-0.1,0-0.1,0-0.2c0-12.5-0.1-24.3-0.1-24.3c6.5,0.7,13.1,0,19.5-1.9c6.8-2.1,12.9-5.5,18.1-8.6
	C283.3,165.3,283.5,162.9,282.5,161.3z M196.8,161.9c-1.9,1.4-3.7,2-5.4,2.1l0,0c-1.9,0.1-3.7-0.7-4.8-2.3c-1-1.4-1.1-3.1-0.5-4.7
	c0.8-1.7,2.2-2.9,4.6-3.7c0.9-0.3,1.8-0.4,2.7-0.5c1.7-0.1,3.5,0.2,5.6,0.9c1.4,0.4,2.7,1,4.1,1.8
	C201.5,157.8,199.4,160.1,196.8,161.9z M221.5,160.1c-1.4-1.1-2.7-2.2-4-3.4c-1.2-1-2.3-2-3.5-3c2.9-4.5,5.5-9.4,7.9-14.4
	c1.6-3.3,3-6.7,4.3-10c0.7-1.8,1.4-3.5,2.2-5.3c1.3-3,3-6.9,5.1-10.6c0.2-0.3,0.3-0.5,0.5-0.8c0.2,0.6,0.4,1.2,0.5,2
	c0.7,3.4,0.8,6.8,0.9,10.4v42.8C230.6,166.1,226,163.6,221.5,160.1z"/>
<path class="st0" d="M324.2,108.1c-2.5-17.7-9.4-33.6-20.7-47.4c-16-19.4-36.4-30.7-61.4-33.7c-3.3-0.4-6.6-0.5-9.8-0.5
	c0,0-1.3,0-1.9,0c-0.5,0-1.5,0-1.5,0c-2.3,0.1-4.6,0.2-6.8,0.5c-25,3-45.5,14.3-61.4,33.7c-11.6,13.8-18.4,29.7-20.9,47.4
	c-2.4,16.9-0.5,33.2,5.8,49c5.1,12.8,12.6,23.9,22.4,33.5c3.5,3.4,7.1,6.8,9.8,10.9c4.5,6.8,7.1,14.1,7.8,22
	c0.3,2.4,2.3,4.3,4.7,4.3c0.1,0,0.2,0,0.2,0c0.3,0,0.5,0,0.8-0.1c0.2-0.1,0.5-0.1,0.7-0.2c0.2-0.1,0.5-0.2,0.7-0.3s0.4-0.3,0.6-0.4
	c0.2-0.2,0.4-0.3,0.5-0.5c0.2-0.2,0.3-0.4,0.4-0.6c0.1-0.2,0.3-0.4,0.4-0.7c0.1-0.2,0.2-0.5,0.2-0.7s0.1-0.3,0.1-0.5
	c0-0.1,0-0.5,0-0.6c0-0.3,0-0.6-0.1-0.9c0-0.3-0.1-0.6-0.1-0.9c0-0.3-0.1-0.6-0.1-0.9c0-0.3-0.1-0.6-0.1-0.9c0-0.3-0.1-0.6-0.1-0.9
	c0-0.3-0.1-0.6-0.1-0.9c0-0.3-0.1-0.6-0.2-0.9c-0.1-0.3-0.1-0.6-0.2-0.9c-0.1-0.3-0.1-0.6-0.2-0.9c-0.1-0.3-0.1-0.6-0.2-0.9
	c-0.1-0.3-0.1-0.6-0.2-0.9c-0.1-0.3-0.1-0.6-0.2-0.9c-0.1-0.3-0.2-0.6-0.2-0.9c-0.1-0.3-0.2-0.6-0.3-0.9c-0.1-0.3-0.2-0.6-0.3-0.8
	c-0.1-0.3-0.2-0.6-0.3-0.8c-0.1-0.3-0.2-0.6-0.3-0.8c-0.1-0.3-0.2-0.6-0.3-0.8c-0.1-0.3-0.2-0.5-0.3-0.8s-0.2-0.5-0.3-0.8
	s-0.2-0.5-0.3-0.8s-0.2-0.5-0.4-0.8c-0.1-0.3-0.2-0.5-0.4-0.8c-0.1-0.3-0.3-0.5-0.4-0.8s-0.3-0.5-0.4-0.8c-0.1-0.3-0.3-0.5-0.4-0.8
	s-0.3-0.5-0.4-0.8c-0.1-0.3-0.3-0.5-0.4-0.8s-0.3-0.5-0.5-0.8s-0.3-0.5-0.5-0.8s-0.3-0.5-0.5-0.8s-0.3-0.5-0.5-0.8
	c-0.2-0.2-0.3-0.5-0.5-0.7s-0.3-0.5-0.5-0.7s-0.4-0.5-0.5-0.7c-0.2-0.2-0.4-0.5-0.6-0.7c-0.2-0.2-0.4-0.5-0.6-0.7s-0.4-0.5-0.6-0.7
	c-0.2-0.2-0.4-0.5-0.6-0.7s-0.4-0.5-0.6-0.7c-0.2-0.2-0.4-0.5-0.6-0.7c-4.3-4.8-9.3-8.9-13.4-13.9c-12.8-15.8-18.7-33.9-19.2-54
	c-0.2-9.5,1.5-18.8,4.4-27.8c5.3-16.2,15-29.4,28.2-39.9c12.8-10.2,27.4-16.2,43.8-17.6c2.3-0.2,4.6-0.3,6.8-0.3
	c2.5,0,5.1,0.1,7.7,0.3c16.5,1.4,31,7.4,43.8,17.6c13.2,10.5,22.9,23.7,28.2,39.9c2.9,9,4.7,18.3,4.4,27.8
	c-0.5,20.1-6.4,38.2-19.2,54c-4.1,5-9.1,9.2-13.4,13.9c-0.2,0.2-0.4,0.5-0.6,0.7s-0.4,0.5-0.6,0.7s-0.4,0.5-0.6,0.7
	s-0.4,0.5-0.6,0.7s-0.4,0.5-0.6,0.7s-0.4,0.5-0.6,0.7s-0.4,0.5-0.5,0.7c-0.2,0.2-0.4,0.5-0.5,0.7c-0.2,0.2-0.3,0.5-0.5,0.7
	s-0.3,0.5-0.5,0.7c-0.2,0.3-0.3,0.5-0.5,0.8s-0.3,0.5-0.5,0.8s-0.3,0.5-0.5,0.8c-0.1,0.3-0.3,0.5-0.4,0.8s-0.3,0.5-0.4,0.8
	s-0.3,0.5-0.4,0.8s-0.3,0.5-0.4,0.8s-0.3,0.5-0.4,0.8s-0.3,0.5-0.4,0.8s-0.2,0.5-0.4,0.8c-0.1,0.3-0.2,0.5-0.3,0.8s-0.2,0.5-0.3,0.8
	c-0.1,0.3-0.2,0.5-0.3,0.8s-0.2,0.6-0.3,0.8c-0.1,0.3-0.2,0.6-0.3,0.8c-0.1,0.3-0.2,0.6-0.3,0.8c-0.1,0.3-0.2,0.6-0.3,0.8
	c-0.1,0.3-0.2,0.6-0.3,0.9c-0.1,0.3-0.2,0.6-0.2,0.9c-0.1,0.3-0.2,0.6-0.2,0.9c-0.1,0.3-0.1,0.6-0.2,0.9c-0.1,0.3-0.1,0.6-0.2,0.9
	c-0.1,0.3-0.1,0.6-0.2,0.9c-0.1,0.3-0.1,0.6-0.2,0.9c-0.1,0.3-0.1,0.6-0.2,0.9c0,0.3-0.1,0.6-0.1,0.9c0,0.3-0.1,0.6-0.1,0.9
	c0,0.3-0.1,0.6-0.1,0.9c0,0.3-0.1,0.6-0.1,0.9c0,0.3-0.1,0.6-0.1,0.9c0,0.3-0.1,0.6-0.1,0.9c0,0.1,0,0.5,0,0.6
	c0,0.2,0.1,0.3,0.1,0.5c0.1,0.2,0.1,0.5,0.2,0.7s0.2,0.4,0.4,0.7c0.1,0.2,0.3,0.4,0.4,0.6c0.2,0.2,0.3,0.4,0.5,0.5
	c0.2,0.2,0.4,0.3,0.6,0.4c0.2,0.1,0.4,0.2,0.7,0.3c0.2,0.1,0.5,0.2,0.7,0.2c0.3,0.1,0.5,0.1,0.8,0.1c0.1,0,0.2,0,0.2,0
	c2.5,0,4.5-1.9,4.7-4.3c0.7-7.9,3.3-15.2,7.8-22c2.7-4.1,6.3-7.5,9.8-10.9c9.9-9.6,17.4-20.7,22.4-33.5
	C324.6,141.3,326.5,125,324.2,108.1z"/>
<linearGradient id="SVGID_00000091704095129671021760000004088063643606092169_" gradientUnits="userSpaceOnUse" x1="54" y1="110.8937" x2="77.7" y2="110.8937" gradientTransform="matrix(1 0 0 -1 0 448.3937)">
	<stop  offset="0" style="stop-color:#F20500"/>
	<stop  offset="2.272730e-04" style="stop-color:#F20500"/>
	<stop  offset="1" style="stop-color:#D90575"/>
</linearGradient>
<polygon style="fill:url(#SVGID_00000091704095129671021760000004088063643606092169_);" points="54,335.2 54,339.7 77.7,355.6 
	77.7,349.7 59.3,337.6 59.3,337.3 77.7,325.2 77.7,319.4 "/>
<path class="st0" d="M99.2,353.7c-0.9-0.3-1.7-0.8-2.2-1.4c-0.6-0.6-0.8-1.5-0.8-2.5c0-1.3,0.5-2.4,1.4-3.3s2.5-1.7,4.8-2.4
	c2.3-0.6,5.4-1.1,9.5-1.4v7.3c-1.6,1.3-3.1,2.3-4.7,3s-3.2,1.1-4.8,1.1C101.1,354.1,100.1,354,99.2,353.7 M100,327.5
	c-1.7,0.4-3.3,1-4.7,1.7c-1.5,0.7-2.8,1.4-3.9,2l2.3,4.2c1-0.6,2.1-1.2,3.2-1.7s2.3-1,3.5-1.3s2.5-0.5,3.7-0.5
	c1.8,0,3.3,0.3,4.4,0.9s1.9,1.4,2.5,2.5c0.5,1,0.8,2.2,0.8,3.5c-7.7,0.6-13.3,1.8-16.6,3.6c-3.4,1.8-5.1,4.4-5.1,7.9
	c0,1.8,0.5,3.4,1.4,4.7c0.9,1.3,2.1,2.3,3.7,3.1c1.6,0.7,3.3,1.1,5.3,1.1c2.1,0,4.2-0.5,6.2-1.4c2.1-0.9,3.9-2,5.5-3.3h0.2l0.5,4
	h5.1V340c0-2.7-0.5-5.1-1.4-7c-1-1.9-2.4-3.4-4.3-4.5c-1.9-1-4.3-1.6-7.1-1.6C103.4,326.8,101.7,327.1,100,327.5"/>
<path class="st0" d="M122.1,313.8v5h10.2v28.8c0,3.7,0.9,6.5,2.7,8.5s4.4,3,7.8,3c1.8,0,3.3-0.2,4.5-0.5c1.3-0.4,2.6-0.8,4-1.2
	l-1.5-4.7c-1.1,0.5-2.1,0.8-3,1s-1.7,0.3-2.5,0.3c-1.7,0-3.1-0.5-4.2-1.4c-1.1-0.9-1.6-2.5-1.6-4.6v-34.2L122.1,313.8L122.1,313.8z"
	/>
<path class="st0" d="M165.8,336.8c0.9-1.7,2.1-2.9,3.6-3.8c1.5-0.8,3.1-1.3,4.9-1.3c2.6,0,4.7,0.8,6.2,2.5c1.3,1.4,2,3.4,2.2,5.9
	h-17.9C164.9,338.9,165.2,337.8,165.8,336.8 M166.4,328.8c-2.4,1.3-4.3,3.1-5.8,5.5s-2.3,5.3-2.3,8.6c0,3.4,0.8,6.4,2.3,8.8
	s3.5,4.2,6,5.5s5.3,1.9,8.4,1.9c2.4,0,4.6-0.3,6.6-1s3.8-1.6,5.4-2.6l-2.3-4c-1.4,0.8-2.8,1.5-4.2,2s-3,0.7-4.8,0.7
	c-2.2,0-4.1-0.4-5.8-1.3c-1.7-0.8-3-2.1-4-3.8c-0.7-1.2-1.2-2.7-1.4-4.4h23.4c0.1-0.4,0.2-0.9,0.2-1.5c0.1-0.6,0.1-1.2,0.1-1.9
	c0-2.9-0.6-5.4-1.7-7.6s-2.7-3.9-4.8-5.1s-4.7-1.9-7.7-1.9C171.3,326.8,168.7,327.5,166.4,328.8"/>
<path class="st0" d="M218.7,327.6l-4.1,6.2c-0.5,0.8-1,1.7-1.6,2.6s-1.1,1.8-1.7,2.6H211c-0.5-0.8-1.1-1.7-1.7-2.6
	c-0.6-0.9-1.2-1.8-1.7-2.6l-4.5-6.3h-6.8l10.6,14.8l-11.4,16h6.6l4.5-6.5c0.6-1,1.2-1.9,1.8-2.8s1.2-1.8,1.8-2.7h0.2
	c0.7,0.9,1.3,1.8,2,2.8s1.3,1.9,1.9,2.8l4.9,6.5h6.8L214.6,343l10.7-15.4H218.7z"/>
<path class="st0" d="M242.5,353.7c-0.9-0.3-1.7-0.8-2.2-1.4c-0.6-0.6-0.8-1.5-0.8-2.5c0-1.3,0.5-2.4,1.4-3.3s2.5-1.7,4.8-2.4
	c2.3-0.6,5.4-1.1,9.5-1.4v7.3c-1.6,1.3-3.1,2.3-4.7,3c-1.6,0.7-3.2,1.1-4.8,1.1C244.5,354.1,243.5,354,242.5,353.7 M243.3,327.5
	c-1.7,0.4-3.3,1-4.7,1.7c-1.5,0.7-2.8,1.4-3.9,2l2.3,4.2c1-0.6,2.1-1.2,3.2-1.7c1.1-0.5,2.3-1,3.5-1.3s2.5-0.5,3.7-0.5
	c1.8,0,3.3,0.3,4.4,0.9c1.1,0.6,1.9,1.4,2.5,2.5c0.5,1,0.8,2.2,0.8,3.5c-7.7,0.6-13.3,1.8-16.6,3.6c-3.4,1.8-5.1,4.4-5.1,7.9
	c0,1.8,0.4,3.4,1.4,4.7c0.9,1.3,2.1,2.3,3.7,3.1c1.6,0.7,3.3,1.1,5.3,1.1c2.1,0,4.2-0.5,6.2-1.4c2.1-0.9,3.9-2,5.5-3.3h0.2l0.5,4
	h5.1V340c0-2.7-0.5-5.1-1.4-7c-1-1.9-2.4-3.4-4.3-4.5c-1.9-1-4.3-1.6-7.1-1.6C246.8,326.8,245,327.1,243.3,327.5"/>
<path class="st0" d="M282.8,328.5c-1.8,1.1-3.5,2.5-5,4.1h-0.3l-0.5-5h-5.1v30.8h6.2v-21.2c1.6-1.6,3-2.9,4.3-3.7
	c1.3-0.8,2.8-1.2,4.4-1.2c2.3,0,4,0.6,4.9,1.9c1,1.3,1.5,3.3,1.5,5.9v18.2h6.2v-19.1c0-4-0.8-7.1-2.5-9.2c-1.7-2.2-4.3-3.2-7.9-3.2
	C286.7,326.8,284.6,327.4,282.8,328.5"/>
<path class="st0" d="M316.3,351.1c-1.5-1.9-2.2-4.6-2.2-8.1c0-2.2,0.4-4.2,1.2-5.8c0.8-1.6,1.9-2.9,3.2-3.8c1.3-0.9,2.8-1.3,4.4-1.3
	c1.2,0,2.4,0.2,3.6,0.7s2.4,1.3,3.6,2.4v14.6c-1.2,1.4-2.5,2.4-3.7,3.1c-1.3,0.7-2.6,1-4,1C319.8,354,317.7,353,316.3,351.1
	 M330.1,313.8v11.4l0.3,5.5h-0.2c-1.2-1.2-2.5-2.2-4-2.8c-1.4-0.7-3-1-4.8-1c-2.3,0-4.6,0.7-6.7,2s-3.8,3.2-5.1,5.6
	c-1.3,2.4-2,5.3-2,8.6c0,5.1,1.2,9,3.6,11.9c2.4,2.8,5.6,4.2,9.6,4.2c1.8,0,3.6-0.5,5.3-1.4c1.7-0.9,3.1-2,4.3-3.2h0.2l0.5,3.8h5.1
	v-44.6H330.1z"/>
<path class="st0" d="M353.4,336.8c0.9-1.7,2.1-2.9,3.6-3.8c1.5-0.8,3.1-1.3,4.9-1.3c2.6,0,4.7,0.8,6.2,2.5c1.3,1.4,2,3.4,2.2,5.9
	h-17.9C352.5,338.9,352.9,337.8,353.4,336.8 M354,328.8c-2.4,1.3-4.3,3.1-5.8,5.5s-2.3,5.3-2.3,8.6c0,3.4,0.8,6.4,2.3,8.8
	s3.5,4.2,6,5.5s5.3,1.9,8.4,1.9c2.4,0,4.6-0.3,6.6-1s3.8-1.6,5.4-2.6l-2.3-4c-1.4,0.8-2.8,1.5-4.2,2c-1.4,0.5-3,0.7-4.8,0.7
	c-2.2,0-4.1-0.4-5.8-1.3c-1.7-0.8-3-2.1-4-3.8c-0.7-1.2-1.2-2.7-1.4-4.4h23.4c0.1-0.4,0.2-0.9,0.2-1.5c0.1-0.6,0.1-1.2,0.1-1.9
	c0-2.9-0.6-5.4-1.7-7.6s-2.7-3.9-4.8-5.1c-2.1-1.2-4.7-1.9-7.7-1.9C358.9,326.8,356.4,327.5,354,328.8"/>
<path class="st0" d="M398,328.9c-2.3,1.4-4.3,3.3-5.8,5.8H392l-0.5-7.2h-5.2v30.8h6.2v-17.5c1.7-3.1,3.6-5.3,5.7-6.5
	c2.1-1.3,4.2-1.9,6.4-1.9c1.2,0,2.1,0.1,2.9,0.2s1.7,0.4,2.7,0.8l1.4-5.3c-0.9-0.4-1.9-0.7-2.8-0.9c-1-0.2-2-0.3-3.2-0.3
	C402.8,326.8,400.3,327.5,398,328.9"/>
<path class="st0" d="M90.1,374.9v5h10.3v28.8c0,3.7,0.9,6.5,2.7,8.5c1.8,2,4.4,3,7.8,3c1.8,0,3.3-0.2,4.5-0.5c1.3-0.4,2.6-0.8,4-1.2
	l-1.5-4.7c-1.1,0.5-2.1,0.8-3,1s-1.8,0.3-2.5,0.3c-1.7,0-3.1-0.5-4.2-1.4s-1.6-2.5-1.6-4.6v-34.2L90.1,374.9L90.1,374.9z"/>
<path class="st0" d="M122.1,388.7v5h13.8v25.7h6.2v-30.8L122.1,388.7L122.1,388.7z M135.1,375.1c-0.9,0.8-1.3,1.9-1.3,3.2
	s0.4,2.4,1.3,3.2c0.9,0.8,2,1.2,3.3,1.2s2.5-0.4,3.3-1.2c0.9-0.8,1.3-1.9,1.3-3.2s-0.4-2.4-1.3-3.2c-0.9-0.8-2-1.2-3.3-1.2
	S136,374.2,135.1,375.1"/>
<path class="st0" d="M161.4,389.9c-2.6,1.3-4.7,3.1-6.3,5.5s-2.4,5.3-2.4,8.7c0,3.4,0.7,6.3,2.2,8.7c1.5,2.4,3.5,4.2,6.1,5.5
	s5.4,1.9,8.6,1.9c2.3,0,4.5-0.4,6.6-1.2c2.1-0.8,4-2,5.8-3.5l-2.7-4c-1.2,1-2.6,1.9-4.1,2.6s-3.2,1.1-5,1.1c-2.2,0-4.1-0.5-5.8-1.4
	s-2.9-2.2-3.9-3.8s-1.4-3.6-1.4-5.8c0-2.2,0.5-4.1,1.4-5.8c0.9-1.7,2.3-2.9,4-3.9c1.7-0.9,3.6-1.4,5.8-1.4c1.5,0,2.9,0.3,4.2,0.8
	c1.3,0.6,2.5,1.4,3.8,2.4l3-4c-1.3-1.2-2.8-2.3-4.7-3.1c-1.9-0.9-4.1-1.3-6.6-1.3C166.9,388,164.1,388.6,161.4,389.9"/>
<path class="st0" d="M191.2,374.9v44.6h6.2v-21.2c1.6-1.6,3-2.9,4.3-3.7c1.3-0.8,2.8-1.2,4.4-1.2c2.3,0,4,0.6,4.9,1.9
	c1,1.3,1.5,3.3,1.5,5.9v18.2h6.2v-19.1c0-4-0.8-7.1-2.5-9.2c-1.7-2.2-4.3-3.2-7.9-3.2c-2.3,0-4.4,0.6-6.2,1.7s-3.4,2.4-4.9,4H197
	l0.4-6.9v-11.8L191.2,374.9L191.2,374.9z"/>
<path class="st0" d="M236.9,379.1l-0.9,9.7l-8.6,0.3v4.7h8.4v13.5c0,2.6,0.4,4.9,1.2,6.8s2,3.4,3.8,4.5s4.2,1.6,7.3,1.6
	c1.9,0,3.7-0.2,5.3-0.5c1.6-0.4,3-0.8,4.4-1.2l-1.3-4.5c-1,0.4-2.1,0.7-3.3,0.9c-1.1,0.2-2.4,0.3-3.8,0.3c-1.9,0-3.4-0.3-4.5-0.8
	c-1.1-0.6-1.9-1.4-2.3-2.6c-0.5-1.2-0.7-2.6-0.7-4.4v-13.6h14.5v-5H242v-9.7L236.9,379.1L236.9,379.1z"/>
<path class="st0" d="M272.7,397.9c0.9-1.7,2.1-2.9,3.6-3.8c1.5-0.8,3.1-1.3,4.9-1.3c2.6,0,4.7,0.8,6.2,2.5c1.3,1.4,2,3.4,2.2,5.9
	h-17.9C271.8,400.1,272.2,398.9,272.7,397.9 M273.3,389.9c-2.4,1.3-4.3,3.1-5.9,5.5c-1.5,2.4-2.3,5.3-2.3,8.6c0,3.4,0.8,6.4,2.3,8.8
	s3.5,4.2,6,5.5s5.3,1.9,8.4,1.9c2.4,0,4.6-0.3,6.6-1s3.8-1.6,5.4-2.6l-2.3-4c-1.4,0.8-2.8,1.5-4.2,2c-1.4,0.5-3,0.7-4.8,0.7
	c-2.2,0-4.1-0.4-5.8-1.3c-1.7-0.8-3-2.1-4-3.8c-0.7-1.2-1.2-2.7-1.4-4.4h23.4c0.1-0.4,0.2-0.9,0.2-1.5c0.1-0.6,0.1-1.2,0.1-1.9
	c0-2.9-0.6-5.4-1.7-7.6s-2.7-3.9-4.8-5.1c-2.1-1.2-4.7-1.9-7.7-1.9C278.3,388,275.7,388.6,273.3,389.9"/>
<path class="st0" d="M319.3,390.1c-2.3,1.4-4.3,3.3-5.8,5.8h-0.2l-0.5-7.2h-5.2v30.8h6.2V402c1.7-3.1,3.6-5.3,5.7-6.5
	c2.1-1.3,4.2-1.9,6.4-1.9c1.2,0,2.1,0.1,2.9,0.2s1.7,0.4,2.7,0.8l1.4-5.3c-0.9-0.4-1.9-0.7-2.8-0.9c-1-0.2-2-0.3-3.2-0.3
	C324.1,388,321.6,388.7,319.3,390.1"/>
<linearGradient id="SVGID_00000003090266390346073760000007585417604733832617_" gradientUnits="userSpaceOnUse" x1="336.3" y1="51.4437" x2="362.34" y2="51.4437" gradientTransform="matrix(1 0 0 -1 0 448.3937)">
	<stop  offset="0" style="stop-color:#F20500"/>
	<stop  offset="2.272730e-04" style="stop-color:#F20500"/>
	<stop  offset="1" style="stop-color:#D90575"/>
</linearGradient>
<polygon style="fill:url(#SVGID_00000003090266390346073760000007585417604733832617_);" points="356.9,369.6 336.3,424.3 
	341.7,424.3 362.4,369.6 "/>
<linearGradient id="SVGID_00000160890658621876210630000011435995315047041169_" gradientUnits="userSpaceOnUse" x1="368.4568" y1="49.7937" x2="392.1568" y2="49.7937" gradientTransform="matrix(1 0 0 -1 0 448.3937)">
	<stop  offset="0" style="stop-color:#F20500"/>
	<stop  offset="2.272730e-04" style="stop-color:#F20500"/>
	<stop  offset="1" style="stop-color:#D90575"/>
</linearGradient>
<polygon style="fill:url(#SVGID_00000160890658621876210630000011435995315047041169_);" points="368.5,380.5 368.5,386.4 
	386.8,398.5 386.8,398.7 368.5,410.9 368.5,416.7 392.2,400.9 392.2,396.4 "/>
</svg>
