<svg xmlns="http://www.w3.org/2000/svg" viewBox="0 0 222.6 283.5"><linearGradient id="a" x1="58.124" x2="163.069" y1="153.368" y2="153.368" gradientUnits="userSpaceOnUse"><stop offset="0" stop-color="#f20500"/><stop offset="0" stop-color="#f20500"/><stop offset="1" stop-color="#d90575"/></linearGradient><g fill="#fff"><path d="M149.2 235h-75c-2.6 0-4.8-2.1-4.8-4.8 0-2.6 2.1-4.8 4.8-4.8h75c2.6 0 4.8 2.1 4.8 4.8-.1 2.6-2.2 4.8-4.8 4.8zM144.1 252.2H79.5c-2.6 0-4.8-2.1-4.8-4.8 0-2.6 2.1-4.8 4.8-4.8h64.6c2.6 0 4.8 2.1 4.8 4.8s-2.1 4.8-4.8 4.8zM128 269.4H95.4c-2.6 0-4.8-2.1-4.8-4.8 0-2.6 2.1-4.8 4.8-4.8H128c2.6 0 4.8 2.1 4.8 4.8-.1 2.7-2.2 4.8-4.8 4.8z"/></g><path fill="url(#a)" d="M162.5 148.8c-.9-1.6-3.1-2.6-5.6-1.1-.7.4-1.3.8-2 1.2l-1.7 1c-7.7 4.4-14.1 6.7-20.6 7.4-3.1.3-6.2.3-9.3-.1 0-.4-.2-47.2-.2-47.2-.1-3-.4-5.9-.9-8.8-.4-2.3-1.1-4.8-2.8-7-1.5-1.9-3.2-2.5-4.3-2.7-1.1-.1-2.9 0-4.8 1.5-1.8 1.4-2.9 3.2-3.8 4.8-3.2 5.8-5.7 11.8-7.5 16.5-3.3 8.3-7 15.7-11.3 22.6-3.4-2-6.7-3.2-10.1-3.8-5.4-.8-10.1.2-14 3.1-4.9 3.6-6.7 9.9-4.4 15.3 2.4 5.6 8.3 8.7 14.3 7.5 3.1-.6 6.1-2 9-4.3 2.4-1.9 4.7-4.2 7-7.2 1 .8 2 1.7 3 2.5 7.5 6.7 15 11.1 22.9 13.3v6.2c-.1 5.1-.1 9.8 0 14.1v27.7c0 2.2 1.8 3.9 3.9 3.9 2.2 0 3.9-1.8 3.9-3.9v-22.2c0-12.5-.1-24.3-.1-24.3 6.5.7 13.1 0 19.5-1.9 6.8-2.1 12.9-5.5 18.1-8.6 2.6-1.5 2.8-3.9 1.8-5.5zm-85.7.6c-1.9 1.4-3.7 2-5.4 2.1-1.9.1-3.7-.7-4.8-2.3-1-1.4-1.1-3.1-.5-4.7.8-1.7 2.2-2.9 4.6-3.7.9-.3 1.8-.4 2.7-.5 1.7-.1 3.5.2 5.6.9 1.4.4 2.7 1 4.1 1.8-1.6 2.3-3.7 4.6-6.3 6.4zm24.7-1.8c-1.4-1.1-2.7-2.2-4-3.4-1.2-1-2.3-2-3.5-3 2.9-4.5 5.5-9.4 7.9-14.4 1.6-3.3 3-6.7 4.3-10 .7-1.8 1.4-3.5 2.2-5.3 1.3-3 3-6.9 5.1-10.6.2-.3.3-.5.5-.8.2.6.4 1.2.5 2 .7 3.4.8 6.8.9 10.4v42.8c-4.8-1.7-9.4-4.2-13.9-7.7z"/><path fill="#fff" d="M204.2 95.6c-2.5-17.7-9.4-33.6-20.7-47.4-16-19.4-36.4-30.7-61.4-33.7-3.3-.4-6.6-.5-9.8-.5h-3.4c-2.3.1-4.6.2-6.8.5-25 3-45.5 14.3-61.4 33.7C29.1 62 22.3 77.9 19.8 95.6c-2.4 16.9-.5 33.2 5.8 49 5.1 12.8 12.6 23.9 22.4 33.5 3.5 3.4 7.1 6.8 9.8 10.9 4.5 6.8 7.1 14.1 7.8 22 .3 2.4 2.3 4.3 4.7 4.3h.2c.3 0 .5 0 .8-.1.2-.1.5-.1.7-.2s.5-.2.7-.3.4-.3.6-.4c.2-.2.4-.3.5-.5.2-.2.3-.4.4-.6s.3-.4.4-.7c.1-.2.2-.5.2-.7s.1-.3.1-.5v-.6c0-.3 0-.6-.1-.9 0-.3-.1-.6-.1-.9s-.1-.6-.1-.9-.1-.6-.1-.9-.1-.6-.1-.9-.1-.6-.1-.9-.1-.6-.2-.9-.1-.6-.2-.9-.1-.6-.2-.9-.1-.6-.2-.9-.1-.6-.2-.9-.1-.6-.2-.9-.2-.6-.2-.9l-.3-.9c-.1-.3-.2-.6-.3-.8-.1-.3-.2-.6-.3-.8-.1-.3-.2-.6-.3-.8-.1-.3-.2-.6-.3-.8-.1-.3-.2-.5-.3-.8s-.2-.5-.3-.8-.2-.5-.3-.8-.2-.5-.4-.8c-.1-.3-.2-.5-.4-.8-.1-.3-.3-.5-.4-.8s-.3-.5-.4-.8-.3-.5-.4-.8-.3-.5-.4-.8-.3-.5-.4-.8-.3-.5-.5-.8-.3-.5-.5-.8-.3-.5-.5-.8-.3-.5-.5-.8c-.2-.2-.3-.5-.5-.7s-.3-.5-.5-.7-.4-.5-.5-.7c-.2-.2-.4-.5-.6-.7s-.4-.5-.6-.7-.4-.5-.6-.7-.4-.5-.6-.7-.4-.5-.6-.7-.4-.5-.6-.7c-4.3-4.8-9.3-8.9-13.4-13.9-12.8-15.8-18.7-33.9-19.2-54-.2-9.5 1.5-18.8 4.4-27.8 5.3-16.2 15-29.4 28.2-39.9C73.4 31.6 88 25.6 104.4 24.2c2.3-.2 4.6-.3 6.8-.3 2.5 0 5.1.1 7.7.3 16.5 1.4 31 7.4 43.8 17.6 13.2 10.5 22.9 23.7 28.2 39.9 2.9 9 4.7 18.3 4.4 27.8-.5 20.1-6.4 38.2-19.2 54-4.1 5-9.1 9.2-13.4 13.9-.2.2-.4.5-.6.7s-.4.5-.6.7-.4.5-.6.7-.4.5-.6.7-.4.5-.6.7-.4.5-.6.7-.4.5-.5.7c-.2.2-.4.5-.5.7-.2.2-.3.5-.5.7s-.3.5-.5.7c-.2.3-.3.5-.5.8s-.3.5-.5.8-.3.5-.5.8c-.1.3-.3.5-.4.8s-.3.5-.4.8-.3.5-.4.8-.3.5-.4.8-.3.5-.4.8-.3.5-.4.8-.2.5-.4.8c-.1.3-.2.5-.3.8s-.2.5-.3.8-.2.5-.3.8-.2.6-.3.8c-.1.3-.2.6-.3.8-.1.3-.2.6-.3.8-.1.3-.2.6-.3.8l-.3.9c-.1.3-.2.6-.2.9-.1.3-.2.6-.2.9-.1.3-.1.6-.2.9s-.1.6-.2.9-.1.6-.2.9-.1.6-.2.9-.1.6-.2.9c0 .3-.1.6-.1.9s-.1.6-.1.9-.1.6-.1.9-.1.6-.1.9-.1.6-.1.9-.1.6-.1.9v.6c0 .2.1.3.1.5.1.2.1.5.2.7s.2.4.4.7c.1.2.3.4.4.6.2.2.3.4.5.5.2.2.4.3.6.4s.4.2.7.3c.2.1.5.2.7.2.3.1.5.1.8.1h.2c2.5 0 4.5-1.9 4.7-4.3.7-7.9 3.3-15.2 7.8-22 2.7-4.1 6.3-7.5 9.8-10.9 9.9-9.6 17.4-20.7 22.4-33.5 6.9-15.7 8.8-32 6.5-48.9z"/></svg>