<svg xmlns="http://www.w3.org/2000/svg" xml:space="preserve" id="Ebene_1" x="0" y="0" style="enable-background:new 0 0 467 446.4" version="1.1" viewBox="0 0 467 446.4"><style>.st1{fill:url(#SVGID_00000016797391308107568480000003945819565776904886_)}.st2{fill:url(#SVGID_00000177443767990973215380000009258196266673776010_)}.st3{fill:url(#SVGID_00000036935877720084133050000012975522489243779722_)}</style><path d="M269.2 247.5h-75c-2.6 0-4.8-2.1-4.8-4.8 0-2.6 2.1-4.8 4.8-4.8h75c2.6 0 4.8 2.1 4.8 4.8-.1 2.6-2.2 4.8-4.8 4.8zM264.1 264.7h-64.6c-2.6 0-4.8-2.1-4.8-4.8 0-2.6 2.1-4.8 4.8-4.8h64.6c2.6 0 4.8 2.1 4.8 4.8 0 2.7-2.1 4.8-4.8 4.8zM248 281.9h-32.6c-2.6 0-4.8-2.1-4.8-4.8 0-2.6 2.1-4.8 4.8-4.8H248c2.6 0 4.8 2.1 4.8 4.8-.1 2.7-2.2 4.8-4.8 4.8z"/><linearGradient id="SVGID_1_" x1="178.209" x2="283.058" y1="732.74" y2="732.74" gradientTransform="translate(0 -566.93)" gradientUnits="userSpaceOnUse"><stop offset="0" style="stop-color:#f20500"/><stop offset="0" style="stop-color:#f20500"/><stop offset="1" style="stop-color:#d90575"/></linearGradient><path d="M282.5 161.3c-.9-1.6-3.1-2.6-5.6-1.1-.7.4-1.3.8-2 1.2l-1.7 1c-7.7 4.4-14.1 6.7-20.6 7.4-3.1.3-6.2.3-9.3-.1 0-.4-.2-47.2-.2-47.2-.1-3-.4-5.9-.9-8.8-.4-2.3-1.1-4.8-2.8-7-1.5-1.9-3.2-2.5-4.3-2.7-1.1-.1-2.9 0-4.8 1.5-1.8 1.4-2.9 3.2-3.8 4.8-3.2 5.8-5.7 11.8-7.5 16.5-3.3 8.3-7 15.7-11.3 22.6-3.4-2-6.7-3.2-10.1-3.8-5.4-.8-10.1.2-14 3.1-4.9 3.6-6.7 9.9-4.4 15.3 2.4 5.6 8.3 8.7 14.3 7.5 3.1-.6 6.1-2 9-4.3 2.4-1.9 4.7-4.2 7-7.2 1 .8 2 1.7 3 2.5 7.5 6.7 15 11.1 22.9 13.3v6.2c-.1 5.1-.1 9.8 0 14.1v27.7c0 2.2 1.8 3.9 3.9 3.9 2.2 0 3.9-1.8 3.9-3.9v-22.2c0-12.5-.1-24.3-.1-24.3 6.5.7 13.1 0 19.5-1.9 6.8-2.1 12.9-5.5 18.1-8.6 2.6-1.5 2.8-3.9 1.8-5.5zm-85.7.6c-1.9 1.4-3.7 2-5.4 2.1-1.9.1-3.7-.7-4.8-2.3-1-1.4-1.1-3.1-.5-4.7.8-1.7 2.2-2.9 4.6-3.7.9-.3 1.8-.4 2.7-.5 1.7-.1 3.5.2 5.6.9 1.4.4 2.7 1 4.1 1.8-1.6 2.3-3.7 4.6-6.3 6.4zm24.7-1.8c-1.4-1.1-2.7-2.2-4-3.4-1.2-1-2.3-2-3.5-3 2.9-4.5 5.5-9.4 7.9-14.4 1.6-3.3 3-6.7 4.3-10 .7-1.8 1.4-3.5 2.2-5.3 1.3-3 3-6.9 5.1-10.6.2-.3.3-.5.5-.8.2.6.4 1.2.5 2 .7 3.4.8 6.8.9 10.4v42.8c-4.8-1.7-9.4-4.2-13.9-7.7z" style="fill:url(#SVGID_1_)"/><path d="M324.2 108.1c-2.5-17.7-9.4-33.6-20.7-47.4-16-19.4-36.4-30.7-61.4-33.7-3.3-.4-6.6-.5-9.8-.5h-3.4c-2.3.1-4.6.2-6.8.5-25 3-45.5 14.3-61.4 33.7-11.6 13.8-18.4 29.7-20.9 47.4-2.4 16.9-.5 33.2 5.8 49 5.1 12.8 12.6 23.9 22.4 33.5 3.5 3.4 7.1 6.8 9.8 10.9 4.5 6.8 7.1 14.1 7.8 22 .3 2.4 2.3 4.3 4.7 4.3h.2c.3 0 .5 0 .8-.1.2-.1.5-.1.7-.2.2-.1.5-.2.7-.3.2-.1.4-.3.6-.4.2-.2.4-.3.5-.5.2-.2.3-.4.4-.6.1-.2.3-.4.4-.7.1-.2.2-.5.2-.7s.1-.3.1-.5v-.6c0-.3 0-.6-.1-.9 0-.3-.1-.6-.1-.9 0-.3-.1-.6-.1-.9 0-.3-.1-.6-.1-.9 0-.3-.1-.6-.1-.9 0-.3-.1-.6-.1-.9 0-.3-.1-.6-.2-.9-.1-.3-.1-.6-.2-.9-.1-.3-.1-.6-.2-.9-.1-.3-.1-.6-.2-.9-.1-.3-.1-.6-.2-.9-.1-.3-.1-.6-.2-.9-.1-.3-.2-.6-.2-.9l-.3-.9c-.1-.3-.2-.6-.3-.8-.1-.3-.2-.6-.3-.8-.1-.3-.2-.6-.3-.8-.1-.3-.2-.6-.3-.8-.1-.3-.2-.5-.3-.8s-.2-.5-.3-.8c-.1-.3-.2-.5-.3-.8s-.2-.5-.4-.8c-.1-.3-.2-.5-.4-.8-.1-.3-.3-.5-.4-.8s-.3-.5-.4-.8c-.1-.3-.3-.5-.4-.8s-.3-.5-.4-.8c-.1-.3-.3-.5-.4-.8s-.3-.5-.5-.8-.3-.5-.5-.8-.3-.5-.5-.8-.3-.5-.5-.8c-.2-.2-.3-.5-.5-.7s-.3-.5-.5-.7-.4-.5-.5-.7c-.2-.2-.4-.5-.6-.7-.2-.2-.4-.5-.6-.7s-.4-.5-.6-.7c-.2-.2-.4-.5-.6-.7s-.4-.5-.6-.7c-.2-.2-.4-.5-.6-.7-4.3-4.8-9.3-8.9-13.4-13.9-12.8-15.8-18.7-33.9-19.2-54-.2-9.5 1.5-18.8 4.4-27.8 5.3-16.2 15-29.4 28.2-39.9 12.8-10.2 27.4-16.2 43.8-17.6 2.3-.2 4.6-.3 6.8-.3 2.5 0 5.1.1 7.7.3 16.5 1.4 31 7.4 43.8 17.6 13.2 10.5 22.9 23.7 28.2 39.9 2.9 9 4.7 18.3 4.4 27.8-.5 20.1-6.4 38.2-19.2 54-4.1 5-9.1 9.2-13.4 13.9-.2.2-.4.5-.6.7-.2.2-.4.5-.6.7s-.4.5-.6.7c-.2.2-.4.5-.6.7s-.4.5-.6.7c-.2.2-.4.5-.6.7s-.4.5-.5.7c-.2.2-.4.5-.5.7-.2.2-.3.5-.5.7-.2.2-.3.5-.5.7-.2.3-.3.5-.5.8-.2.3-.3.5-.5.8-.2.3-.3.5-.5.8-.1.3-.3.5-.4.8-.1.3-.3.5-.4.8-.1.3-.3.5-.4.8-.1.3-.3.5-.4.8-.1.3-.3.5-.4.8-.1.3-.3.5-.4.8-.1.3-.2.5-.4.8-.1.3-.2.5-.3.8s-.2.5-.3.8c-.1.3-.2.5-.3.8s-.2.6-.3.8c-.1.3-.2.6-.3.8-.1.3-.2.6-.3.8-.1.3-.2.6-.3.8l-.3.9c-.1.3-.2.6-.2.9-.1.3-.2.6-.2.9-.1.3-.1.6-.2.9-.1.3-.1.6-.2.9-.1.3-.1.6-.2.9-.1.3-.1.6-.2.9-.1.3-.1.6-.2.9 0 .3-.1.6-.1.9 0 .3-.1.6-.1.9 0 .3-.1.6-.1.9 0 .3-.1.6-.1.9 0 .3-.1.6-.1.9 0 .3-.1.6-.1.9v.6c0 .2.1.3.1.5.1.2.1.5.2.7.1.2.2.4.4.7.1.2.3.4.4.6.2.2.3.4.5.5.2.2.4.3.6.4.2.1.4.2.7.3.2.1.5.2.7.2.3.1.5.1.8.1h.2c2.5 0 4.5-1.9 4.7-4.3.7-7.9 3.3-15.2 7.8-22 2.7-4.1 6.3-7.5 9.8-10.9 9.9-9.6 17.4-20.7 22.4-33.5 6.9-15.7 8.8-32 6.5-48.9z"/><linearGradient id="SVGID_00000021824151288391195960000015807590166867917997_" x1="53.987" x2="77.7" y1="337.472" y2="337.472" gradientUnits="userSpaceOnUse"><stop offset="0" style="stop-color:#f20500"/><stop offset="0" style="stop-color:#f20500"/><stop offset="1" style="stop-color:#d90575"/></linearGradient><path d="M54 335.2v4.5l23.7 15.9v-5.9l-18.4-12.1v-.3l18.4-12.1v-5.8z" style="fill:url(#SVGID_00000021824151288391195960000015807590166867917997_)"/><path d="M99.2 353.7c-.9-.3-1.7-.8-2.2-1.4-.6-.6-.8-1.5-.8-2.5 0-1.3.5-2.4 1.4-3.3.9-.9 2.5-1.7 4.8-2.4 2.3-.6 5.4-1.1 9.5-1.4v7.3c-1.6 1.3-3.1 2.3-4.7 3-1.6.7-3.2 1.1-4.8 1.1-1.3 0-2.3-.1-3.2-.4m.8-26.2c-1.7.4-3.3 1-4.7 1.7-1.5.7-2.8 1.4-3.9 2l2.3 4.2c1-.6 2.1-1.2 3.2-1.7s2.3-1 3.5-1.3c1.2-.3 2.5-.5 3.7-.5 1.8 0 3.3.3 4.4.9 1.1.6 1.9 1.4 2.5 2.5.5 1 .8 2.2.8 3.5-7.7.6-13.3 1.8-16.6 3.6-3.4 1.8-5.1 4.4-5.1 7.9 0 1.8.5 3.4 1.4 4.7.9 1.3 2.1 2.3 3.7 3.1 1.6.7 3.3 1.1 5.3 1.1 2.1 0 4.2-.5 6.2-1.4 2.1-.9 3.9-2 5.5-3.3h.2l.5 4h5.1V340c0-2.7-.5-5.1-1.4-7-1-1.9-2.4-3.4-4.3-4.5-1.9-1-4.3-1.6-7.1-1.6-1.8-.1-3.5.2-5.2.6M122.1 313.8v5h10.2v28.8c0 3.7.9 6.5 2.7 8.5 1.8 2 4.4 3 7.8 3 1.8 0 3.3-.2 4.5-.5 1.3-.4 2.6-.8 4-1.2l-1.5-4.7c-1.1.5-2.1.8-3 1-.9.2-1.7.3-2.5.3-1.7 0-3.1-.5-4.2-1.4-1.1-.9-1.6-2.5-1.6-4.6v-34.2h-16.4zM165.8 336.8c.9-1.7 2.1-2.9 3.6-3.8 1.5-.8 3.1-1.3 4.9-1.3 2.6 0 4.7.8 6.2 2.5 1.3 1.4 2 3.4 2.2 5.9h-17.9c.1-1.2.4-2.3 1-3.3m.6-8c-2.4 1.3-4.3 3.1-5.8 5.5s-2.3 5.3-2.3 8.6c0 3.4.8 6.4 2.3 8.8 1.5 2.4 3.5 4.2 6 5.5 2.5 1.3 5.3 1.9 8.4 1.9 2.4 0 4.6-.3 6.6-1s3.8-1.6 5.4-2.6l-2.3-4c-1.4.8-2.8 1.5-4.2 2-1.4.5-3 .7-4.8.7-2.2 0-4.1-.4-5.8-1.3-1.7-.8-3-2.1-4-3.8-.7-1.2-1.2-2.7-1.4-4.4h23.4c.1-.4.2-.9.2-1.5.1-.6.1-1.2.1-1.9 0-2.9-.6-5.4-1.7-7.6s-2.7-3.9-4.8-5.1c-2.1-1.2-4.7-1.9-7.7-1.9-2.7.1-5.3.8-7.6 2.1M218.7 327.6l-4.1 6.2c-.5.8-1 1.7-1.6 2.6-.6.9-1.1 1.8-1.7 2.6h-.3c-.5-.8-1.1-1.7-1.7-2.6-.6-.9-1.2-1.8-1.7-2.6l-4.5-6.3h-6.8l10.6 14.8-11.4 16h6.6l4.5-6.5c.6-1 1.2-1.9 1.8-2.8l1.8-2.7h.2c.7.9 1.3 1.8 2 2.8.7 1 1.3 1.9 1.9 2.8l4.9 6.5h6.8L214.6 343l10.7-15.4h-6.6zM242.5 353.7c-.9-.3-1.7-.8-2.2-1.4-.6-.6-.8-1.5-.8-2.5 0-1.3.5-2.4 1.4-3.3.9-.9 2.5-1.7 4.8-2.4 2.3-.6 5.4-1.1 9.5-1.4v7.3c-1.6 1.3-3.1 2.3-4.7 3-1.6.7-3.2 1.1-4.8 1.1-1.2 0-2.2-.1-3.2-.4m.8-26.2c-1.7.4-3.3 1-4.7 1.7-1.5.7-2.8 1.4-3.9 2l2.3 4.2c1-.6 2.1-1.2 3.2-1.7s2.3-1 3.5-1.3c1.2-.3 2.5-.5 3.7-.5 1.8 0 3.3.3 4.4.9 1.1.6 1.9 1.4 2.5 2.5.5 1 .8 2.2.8 3.5-7.7.6-13.3 1.8-16.6 3.6-3.4 1.8-5.1 4.4-5.1 7.9 0 1.8.4 3.4 1.4 4.7.9 1.3 2.1 2.3 3.7 3.1 1.6.7 3.3 1.1 5.3 1.1 2.1 0 4.2-.5 6.2-1.4 2.1-.9 3.9-2 5.5-3.3h.2l.5 4h5.1V340c0-2.7-.5-5.1-1.4-7-1-1.9-2.4-3.4-4.3-4.5-1.9-1-4.3-1.6-7.1-1.6-1.7-.1-3.5.2-5.2.6M282.8 328.5c-1.8 1.1-3.5 2.5-5 4.1h-.3l-.5-5h-5.1v30.8h6.2v-21.2c1.6-1.6 3-2.9 4.3-3.7 1.3-.8 2.8-1.2 4.4-1.2 2.3 0 4 .6 4.9 1.9 1 1.3 1.5 3.3 1.5 5.9v18.2h6.2v-19.1c0-4-.8-7.1-2.5-9.2-1.7-2.2-4.3-3.2-7.9-3.2-2.3 0-4.4.6-6.2 1.7M316.3 351.1c-1.5-1.9-2.2-4.6-2.2-8.1 0-2.2.4-4.2 1.2-5.8.8-1.6 1.9-2.9 3.2-3.8 1.3-.9 2.8-1.3 4.4-1.3 1.2 0 2.4.2 3.6.7 1.2.5 2.4 1.3 3.6 2.4v14.6c-1.2 1.4-2.5 2.4-3.7 3.1-1.3.7-2.6 1-4 1-2.6.1-4.7-.9-6.1-2.8m13.8-37.3v11.4l.3 5.5h-.2c-1.2-1.2-2.5-2.2-4-2.8-1.4-.7-3-1-4.8-1-2.3 0-4.6.7-6.7 2-2.1 1.3-3.8 3.2-5.1 5.6-1.3 2.4-2 5.3-2 8.6 0 5.1 1.2 9 3.6 11.9 2.4 2.8 5.6 4.2 9.6 4.2 1.8 0 3.6-.5 5.3-1.4 1.7-.9 3.1-2 4.3-3.2h.2l.5 3.8h5.1v-44.6h-6.1zM353.4 336.8c.9-1.7 2.1-2.9 3.6-3.8 1.5-.8 3.1-1.3 4.9-1.3 2.6 0 4.7.8 6.2 2.5 1.3 1.4 2 3.4 2.2 5.9h-17.9c.1-1.2.5-2.3 1-3.3m.6-8c-2.4 1.3-4.3 3.1-5.8 5.5s-2.3 5.3-2.3 8.6c0 3.4.8 6.4 2.3 8.8 1.5 2.4 3.5 4.2 6 5.5 2.5 1.3 5.3 1.9 8.4 1.9 2.4 0 4.6-.3 6.6-1s3.8-1.6 5.4-2.6l-2.3-4c-1.4.8-2.8 1.5-4.2 2-1.4.5-3 .7-4.8.7-2.2 0-4.1-.4-5.8-1.3-1.7-.8-3-2.1-4-3.8-.7-1.2-1.2-2.7-1.4-4.4h23.4c.1-.4.2-.9.2-1.5.1-.6.1-1.2.1-1.9 0-2.9-.6-5.4-1.7-7.6-1.1-2.2-2.7-3.9-4.8-5.1-2.1-1.2-4.7-1.9-7.7-1.9-2.7.1-5.2.8-7.6 2.1M398 328.9c-2.3 1.4-4.3 3.3-5.8 5.8h-.2l-.5-7.2h-5.2v30.8h6.2v-17.5c1.7-3.1 3.6-5.3 5.7-6.5 2.1-1.3 4.2-1.9 6.4-1.9 1.2 0 2.1.1 2.9.2.8.1 1.7.4 2.7.8l1.4-5.3c-.9-.4-1.9-.7-2.8-.9-1-.2-2-.3-3.2-.3-2.8-.1-5.3.6-7.6 2M90.1 374.9v5h10.3v28.8c0 3.7.9 6.5 2.7 8.5 1.8 2 4.4 3 7.8 3 1.8 0 3.3-.2 4.5-.5 1.3-.4 2.6-.8 4-1.2l-1.5-4.7c-1.1.5-2.1.8-3 1-.9.2-1.8.3-2.5.3-1.7 0-3.1-.5-4.2-1.4-1.1-.9-1.6-2.5-1.6-4.6v-34.2H90.1zM122.1 388.7v5h13.8v25.7h6.2v-30.8h-20zm13-13.6c-.9.8-1.3 1.9-1.3 3.2s.4 2.4 1.3 3.2c.9.8 2 1.2 3.3 1.2s2.5-.4 3.3-1.2c.9-.8 1.3-1.9 1.3-3.2s-.4-2.4-1.3-3.2c-.9-.8-2-1.2-3.3-1.2s-2.4.3-3.3 1.2M161.4 389.9c-2.6 1.3-4.7 3.1-6.3 5.5-1.6 2.4-2.4 5.3-2.4 8.7 0 3.4.7 6.3 2.2 8.7 1.5 2.4 3.5 4.2 6.1 5.5 2.6 1.3 5.4 1.9 8.6 1.9 2.3 0 4.5-.4 6.6-1.2 2.1-.8 4-2 5.8-3.5l-2.7-4c-1.2 1-2.6 1.9-4.1 2.6-1.5.7-3.2 1.1-5 1.1-2.2 0-4.1-.5-5.8-1.4-1.7-.9-2.9-2.2-3.9-3.8s-1.4-3.6-1.4-5.8c0-2.2.5-4.1 1.4-5.8.9-1.7 2.3-2.9 4-3.9 1.7-.9 3.6-1.4 5.8-1.4 1.5 0 2.9.3 4.2.8 1.3.6 2.5 1.4 3.8 2.4l3-4c-1.3-1.2-2.8-2.3-4.7-3.1-1.9-.9-4.1-1.3-6.6-1.3-3.1.1-5.9.7-8.6 2M191.2 374.9v44.6h6.2v-21.2c1.6-1.6 3-2.9 4.3-3.7 1.3-.8 2.8-1.2 4.4-1.2 2.3 0 4 .6 4.9 1.9 1 1.3 1.5 3.3 1.5 5.9v18.2h6.2v-19.1c0-4-.8-7.1-2.5-9.2-1.7-2.2-4.3-3.2-7.9-3.2-2.3 0-4.4.6-6.2 1.7-1.8 1.1-3.4 2.4-4.9 4h-.2l.4-6.9v-11.8h-6.2zM236.9 379.1l-.9 9.7-8.6.3v4.7h8.4v13.5c0 2.6.4 4.9 1.2 6.8.8 1.9 2 3.4 3.8 4.5 1.8 1.1 4.2 1.6 7.3 1.6 1.9 0 3.7-.2 5.3-.5 1.6-.4 3-.8 4.4-1.2l-1.3-4.5c-1 .4-2.1.7-3.3.9-1.1.2-2.4.3-3.8.3-1.9 0-3.4-.3-4.5-.8-1.1-.6-1.9-1.4-2.3-2.6-.5-1.2-.7-2.6-.7-4.4v-13.6h14.5v-5H242v-9.7h-5.1zM272.7 397.9c.9-1.7 2.1-2.9 3.6-3.8 1.5-.8 3.1-1.3 4.9-1.3 2.6 0 4.7.8 6.2 2.5 1.3 1.4 2 3.4 2.2 5.9h-17.9c.1-1.1.5-2.3 1-3.3m.6-8c-2.4 1.3-4.3 3.1-5.9 5.5-1.5 2.4-2.3 5.3-2.3 8.6 0 3.4.8 6.4 2.3 8.8 1.5 2.4 3.5 4.2 6 5.5 2.5 1.3 5.3 1.9 8.4 1.9 2.4 0 4.6-.3 6.6-1s3.8-1.6 5.4-2.6l-2.3-4c-1.4.8-2.8 1.5-4.2 2-1.4.5-3 .7-4.8.7-2.2 0-4.1-.4-5.8-1.3-1.7-.8-3-2.1-4-3.8-.7-1.2-1.2-2.7-1.4-4.4h23.4c.1-.4.2-.9.2-1.5.1-.6.1-1.2.1-1.9 0-2.9-.6-5.4-1.7-7.6-1.1-2.2-2.7-3.9-4.8-5.1-2.1-1.2-4.7-1.9-7.7-1.9-2.5.2-5.1.8-7.5 2.1M319.3 390.1c-2.3 1.4-4.3 3.3-5.8 5.8h-.2l-.5-7.2h-5.2v30.8h6.2V402c1.7-3.1 3.6-5.3 5.7-6.5 2.1-1.3 4.2-1.9 6.4-1.9 1.2 0 2.1.1 2.9.2.8.1 1.7.4 2.7.8l1.4-5.3c-.9-.4-1.9-.7-2.8-.9-1-.2-2-.3-3.2-.3-2.8-.1-5.3.6-7.6 2"/><linearGradient id="SVGID_00000044158650351027646880000010509835247899692179_" x1="336.318" x2="362.358" y1="396.965" y2="396.965" gradientUnits="userSpaceOnUse"><stop offset="0" style="stop-color:#f20500"/><stop offset="0" style="stop-color:#f20500"/><stop offset="1" style="stop-color:#d90575"/></linearGradient><path d="m356.9 369.6-20.6 54.7h5.4l20.7-54.7z" style="fill:url(#SVGID_00000044158650351027646880000010509835247899692179_)"/><linearGradient id="SVGID_00000141416619074028656730000010390527882456288389_" x1="368.457" x2="392.169" y1="398.623" y2="398.623" gradientUnits="userSpaceOnUse"><stop offset="0" style="stop-color:#f20500"/><stop offset="0" style="stop-color:#f20500"/><stop offset="1" style="stop-color:#d90575"/></linearGradient><path d="M368.5 380.5v5.9l18.3 12.1v.2l-18.3 12.2v5.8l23.7-15.8v-4.5z" style="fill:url(#SVGID_00000141416619074028656730000010390527882456288389_)"/></svg>