<?xml version="1.0" encoding="utf-8"?>
<!-- Generator: Adobe Illustrator 27.7.0, SVG Export Plug-In . SVG Version: 6.00 Build 0)  -->
<svg version="1.1" id="Ebene_1" xmlns="http://www.w3.org/2000/svg" xmlns:xlink="http://www.w3.org/1999/xlink" x="0px" y="0px"
	 viewBox="0 0 381.5 142.1" style="enable-background:new 0 0 381.5 142.1;" xml:space="preserve">
<style type="text/css">
	.st0{fill:url(#SVGID_1_);}
	.st1{fill:#FFFFFF;}
	.st2{fill:url(#SVGID_00000031167791552550750990000003678891189079201949_);}
	.st3{fill:url(#SVGID_00000144337943222782693650000001900348565615098036_);}
</style>
<linearGradient id="SVGID_1_" gradientUnits="userSpaceOnUse" x1="12.4362" y1="43.2058" x2="36.1486" y2="43.2058">
	<stop  offset="0" style="stop-color:#F20500"/>
	<stop  offset="2.272730e-04" style="stop-color:#F20500"/>
	<stop  offset="1" style="stop-color:#D90575"/>
</linearGradient>
<polygon class="st0" points="12.4,40.9 12.4,45.5 36.1,61.3 36.1,55.5 17.8,43.3 17.8,43.1 36.1,30.9 36.1,25.1 "/>
<path class="st1" d="M57.7,59.4c-0.9-0.3-1.7-0.8-2.2-1.4c-0.6-0.6-0.8-1.5-0.8-2.5c0-1.3,0.5-2.4,1.4-3.3c0.9-0.9,2.5-1.7,4.8-2.4
	c2.3-0.6,5.4-1.1,9.5-1.4v7.3c-1.6,1.3-3.1,2.3-4.7,3c-1.6,0.7-3.2,1.1-4.8,1.1C59.6,59.9,58.6,59.7,57.7,59.4 M58.4,33.2
	c-1.7,0.4-3.3,1-4.7,1.7c-1.5,0.7-2.8,1.4-3.9,2l2.3,4.2c1-0.6,2.1-1.2,3.2-1.7c1.1-0.5,2.3-1,3.5-1.3c1.2-0.3,2.5-0.5,3.7-0.5
	c1.8,0,3.3,0.3,4.4,0.9c1.1,0.6,1.9,1.4,2.5,2.5c0.5,1,0.8,2.2,0.8,3.5c-7.7,0.6-13.3,1.8-16.6,3.6c-3.4,1.8-5.1,4.4-5.1,7.9
	c0,1.8,0.5,3.4,1.4,4.7c0.9,1.3,2.1,2.3,3.7,3.1c1.6,0.7,3.3,1.1,5.3,1.1c2.1,0,4.2-0.5,6.2-1.4c2.1-0.9,3.9-2,5.5-3.3h0.2l0.5,4
	h5.1V45.6c0-2.7-0.5-5.1-1.4-7c-1-1.9-2.4-3.4-4.3-4.5c-1.9-1-4.3-1.6-7.1-1.6C61.9,32.6,60.1,32.8,58.4,33.2"/>
<path class="st1" d="M80.5,19.5v5h10.2v28.8c0,3.7,0.9,6.5,2.7,8.5c1.8,2,4.4,3,7.8,3c1.8,0,3.3-0.2,4.5-0.5c1.3-0.4,2.6-0.8,4-1.2
	l-1.5-4.7c-1.1,0.5-2.1,0.8-3,1c-0.9,0.2-1.7,0.3-2.5,0.3c-1.7,0-3.1-0.5-4.2-1.4c-1.1-0.9-1.6-2.5-1.6-4.6V19.5H80.5z"/>
<path class="st1" d="M124.2,42.5c0.9-1.7,2.1-2.9,3.6-3.8c1.5-0.8,3.1-1.3,4.9-1.3c2.6,0,4.7,0.8,6.2,2.5c1.3,1.4,2,3.4,2.2,5.9
	h-17.9C123.3,44.7,123.7,43.5,124.2,42.5 M124.8,34.5c-2.4,1.3-4.3,3.1-5.8,5.5c-1.5,2.4-2.3,5.3-2.3,8.6c0,3.4,0.8,6.4,2.3,8.8
	c1.5,2.4,3.5,4.2,6,5.5c2.5,1.3,5.3,1.9,8.4,1.9c2.4,0,4.6-0.3,6.6-1c2-0.7,3.8-1.6,5.4-2.6l-2.3-4c-1.4,0.8-2.8,1.5-4.2,2
	c-1.4,0.5-3,0.7-4.8,0.7c-2.2,0-4.1-0.4-5.8-1.3c-1.7-0.8-3-2.1-4-3.8c-0.7-1.2-1.2-2.7-1.4-4.4h23.4c0.1-0.4,0.2-0.9,0.2-1.5
	c0.1-0.6,0.1-1.2,0.1-1.9c0-2.9-0.6-5.4-1.7-7.6c-1.1-2.2-2.7-3.9-4.8-5.1c-2.1-1.2-4.7-1.9-7.7-1.9
	C129.8,32.6,127.2,33.2,124.8,34.5"/>
<path class="st1" d="M177.1,33.3l-4.1,6.2c-0.5,0.8-1,1.7-1.6,2.6c-0.6,0.9-1.1,1.8-1.7,2.6h-0.3c-0.5-0.8-1.1-1.7-1.7-2.6
	c-0.6-0.9-1.2-1.8-1.7-2.6l-4.5-6.3h-6.8l10.6,14.8l-11.4,16h6.6l4.5-6.5c0.6-1,1.2-1.9,1.8-2.8c0.6-0.9,1.2-1.8,1.8-2.7h0.2
	c0.7,0.9,1.3,1.8,2,2.8c0.7,1,1.3,1.9,1.9,2.8l4.9,6.5h6.8L173,48.7l10.7-15.4H177.1z"/>
<path class="st1" d="M201,59.4c-0.9-0.3-1.7-0.8-2.2-1.4c-0.6-0.6-0.8-1.5-0.8-2.5c0-1.3,0.5-2.4,1.4-3.3c0.9-0.9,2.5-1.7,4.8-2.4
	c2.3-0.6,5.4-1.1,9.5-1.4v7.3c-1.6,1.3-3.1,2.3-4.7,3c-1.6,0.7-3.2,1.1-4.8,1.1C202.9,59.9,201.9,59.7,201,59.4 M201.8,33.2
	c-1.7,0.4-3.3,1-4.7,1.7c-1.5,0.7-2.8,1.4-3.9,2l2.3,4.2c1-0.6,2.1-1.2,3.2-1.7c1.1-0.5,2.3-1,3.5-1.3c1.2-0.3,2.5-0.5,3.7-0.5
	c1.8,0,3.3,0.3,4.4,0.9c1.1,0.6,1.9,1.4,2.5,2.5c0.5,1,0.8,2.2,0.8,3.5c-7.7,0.6-13.3,1.8-16.6,3.6c-3.4,1.8-5.1,4.4-5.1,7.9
	c0,1.8,0.4,3.4,1.4,4.7c0.9,1.3,2.1,2.3,3.7,3.1c1.6,0.7,3.3,1.1,5.3,1.1c2.1,0,4.2-0.5,6.2-1.4c2.1-0.9,3.9-2,5.5-3.3h0.2l0.5,4
	h5.1V45.6c0-2.7-0.5-5.1-1.4-7c-1-1.9-2.4-3.4-4.3-4.5c-1.9-1-4.3-1.6-7.1-1.6C205.2,32.6,203.5,32.8,201.8,33.2"/>
<path class="st1" d="M241.2,34.2c-1.8,1.1-3.5,2.5-5,4.1H236l-0.5-5h-5.1v30.8h6.2V42.9c1.6-1.6,3-2.9,4.3-3.7
	c1.3-0.8,2.8-1.2,4.4-1.2c2.3,0,4,0.6,4.9,1.9c1,1.3,1.5,3.3,1.5,5.9v18.2h6.2V45c0-4-0.8-7.1-2.5-9.2c-1.7-2.2-4.3-3.2-7.9-3.2
	C245.1,32.6,243,33.1,241.2,34.2"/>
<path class="st1" d="M274.7,56.8c-1.5-1.9-2.2-4.6-2.2-8.1c0-2.2,0.4-4.2,1.2-5.8c0.8-1.6,1.9-2.9,3.2-3.8c1.3-0.9,2.8-1.3,4.4-1.3
	c1.2,0,2.4,0.2,3.6,0.7c1.2,0.5,2.4,1.3,3.6,2.4v14.6c-1.2,1.4-2.5,2.4-3.7,3.1c-1.3,0.7-2.6,1-4,1
	C278.2,59.7,276.2,58.7,274.7,56.8 M288.5,19.5v11.4l0.3,5.5h-0.2c-1.2-1.2-2.5-2.2-4-2.8c-1.4-0.7-3-1-4.8-1c-2.3,0-4.6,0.7-6.7,2
	c-2.1,1.3-3.8,3.2-5.1,5.6c-1.3,2.4-2,5.3-2,8.6c0,5.1,1.2,9,3.6,11.9c2.4,2.8,5.6,4.2,9.6,4.2c1.8,0,3.6-0.5,5.3-1.4
	c1.7-0.9,3.1-2,4.3-3.2h0.2l0.5,3.8h5.1V19.5H288.5z"/>
<path class="st1" d="M311.8,42.5c0.9-1.7,2.1-2.9,3.6-3.8c1.5-0.8,3.1-1.3,4.9-1.3c2.6,0,4.7,0.8,6.2,2.5c1.3,1.4,2,3.4,2.2,5.9
	h-17.9C311,44.7,311.3,43.5,311.8,42.5 M312.4,34.5c-2.4,1.3-4.3,3.1-5.8,5.5c-1.5,2.4-2.3,5.3-2.3,8.6c0,3.4,0.8,6.4,2.3,8.8
	c1.5,2.4,3.5,4.2,6,5.5c2.5,1.3,5.3,1.9,8.4,1.9c2.4,0,4.6-0.3,6.6-1c2-0.7,3.8-1.6,5.4-2.6l-2.3-4c-1.4,0.8-2.8,1.5-4.2,2
	c-1.4,0.5-3,0.7-4.8,0.7c-2.2,0-4.1-0.4-5.8-1.3c-1.7-0.8-3-2.1-4-3.8c-0.7-1.2-1.2-2.7-1.4-4.4H334c0.1-0.4,0.2-0.9,0.2-1.5
	c0.1-0.6,0.1-1.2,0.1-1.9c0-2.9-0.6-5.4-1.7-7.6c-1.1-2.2-2.7-3.9-4.8-5.1c-2.1-1.2-4.7-1.9-7.7-1.9
	C317.4,32.6,314.8,33.2,312.4,34.5"/>
<path class="st1" d="M356.4,34.7c-2.3,1.4-4.3,3.3-5.8,5.8h-0.2l-0.5-7.2h-5.2v30.8h6.2V46.6c1.7-3.1,3.6-5.3,5.7-6.5
	c2.1-1.3,4.2-1.9,6.4-1.9c1.2,0,2.1,0.1,2.9,0.2c0.8,0.1,1.7,0.4,2.7,0.8l1.4-5.3c-0.9-0.4-1.9-0.7-2.8-0.9c-1-0.2-2-0.3-3.2-0.3
	C361.2,32.6,358.7,33.3,356.4,34.7"/>
<path class="st1" d="M48.5,80.6v5h10.3v28.8c0,3.7,0.9,6.5,2.7,8.5c1.8,2,4.4,3,7.8,3c1.8,0,3.3-0.2,4.5-0.5c1.3-0.4,2.6-0.8,4-1.2
	l-1.5-4.7c-1.1,0.5-2.1,0.8-3,1c-0.9,0.2-1.8,0.3-2.5,0.3c-1.7,0-3.1-0.5-4.2-1.4c-1.1-0.9-1.6-2.5-1.6-4.6V80.6H48.5z"/>
<path class="st1" d="M80.5,94.5v5h13.8v25.7h6.2V94.5H80.5z M93.5,80.8c-0.9,0.8-1.3,1.9-1.3,3.2s0.4,2.4,1.3,3.2
	c0.9,0.8,2,1.2,3.3,1.2s2.5-0.4,3.3-1.2c0.9-0.8,1.3-1.9,1.3-3.2s-0.4-2.4-1.3-3.2c-0.9-0.8-2-1.2-3.3-1.2S94.4,80,93.5,80.8"/>
<path class="st1" d="M119.9,95.6c-2.6,1.3-4.7,3.1-6.3,5.5c-1.6,2.4-2.4,5.3-2.4,8.7c0,3.4,0.7,6.3,2.2,8.7c1.5,2.4,3.5,4.2,6.1,5.5
	c2.6,1.3,5.4,1.9,8.6,1.9c2.3,0,4.5-0.4,6.6-1.2c2.1-0.8,4-2,5.8-3.5l-2.7-4c-1.2,1-2.6,1.9-4.1,2.6c-1.5,0.7-3.2,1.1-5,1.1
	c-2.2,0-4.1-0.5-5.8-1.4c-1.7-0.9-2.9-2.2-3.9-3.8c-0.9-1.6-1.4-3.6-1.4-5.8c0-2.2,0.5-4.1,1.4-5.8c0.9-1.7,2.3-2.9,4-3.9
	c1.7-0.9,3.6-1.4,5.8-1.4c1.5,0,2.9,0.3,4.2,0.8c1.3,0.6,2.5,1.4,3.8,2.4l3-4c-1.3-1.2-2.8-2.3-4.7-3.1c-1.9-0.9-4.1-1.3-6.6-1.3
	C125.4,93.7,122.5,94.4,119.9,95.6"/>
<path class="st1" d="M149.7,80.6v44.6h6.2V104c1.6-1.6,3-2.9,4.3-3.7c1.3-0.8,2.8-1.2,4.4-1.2c2.3,0,4,0.6,4.9,1.9
	c1,1.3,1.5,3.3,1.5,5.9v18.2h6.2v-19.1c0-4-0.8-7.1-2.5-9.2c-1.7-2.2-4.3-3.2-7.9-3.2c-2.3,0-4.4,0.6-6.2,1.7
	c-1.8,1.1-3.4,2.4-4.9,4h-0.2l0.4-6.9V80.6H149.7z"/>
<path class="st1" d="M195.4,84.8l-0.9,9.7l-8.6,0.3v4.7h8.4V113c0,2.6,0.4,4.9,1.2,6.8c0.8,1.9,2,3.4,3.8,4.5
	c1.8,1.1,4.2,1.6,7.3,1.6c1.9,0,3.7-0.2,5.3-0.5c1.6-0.4,3-0.8,4.4-1.2l-1.3-4.5c-1,0.4-2.1,0.7-3.3,0.9c-1.1,0.2-2.4,0.3-3.8,0.3
	c-1.9,0-3.4-0.3-4.5-0.8c-1.1-0.6-1.9-1.4-2.3-2.6c-0.5-1.2-0.7-2.6-0.7-4.4V99.5H215v-5h-14.5v-9.7H195.4z"/>
<path class="st1" d="M231.2,103.7c0.9-1.7,2.1-2.9,3.6-3.8c1.5-0.8,3.1-1.3,4.9-1.3c2.6,0,4.7,0.8,6.2,2.5c1.3,1.4,2,3.4,2.2,5.9
	H230C230.3,105.8,230.6,104.7,231.2,103.7 M231.8,95.6c-2.4,1.3-4.3,3.1-5.9,5.5c-1.5,2.4-2.3,5.3-2.3,8.6c0,3.4,0.8,6.4,2.3,8.8
	c1.5,2.4,3.5,4.2,6,5.5c2.5,1.3,5.3,1.9,8.4,1.9c2.4,0,4.6-0.3,6.6-1c2-0.7,3.8-1.6,5.4-2.6l-2.3-4c-1.4,0.8-2.8,1.5-4.2,2
	c-1.4,0.5-3,0.7-4.8,0.7c-2.2,0-4.1-0.4-5.8-1.3c-1.7-0.8-3-2.1-4-3.8c-0.7-1.2-1.2-2.7-1.4-4.4h23.4c0.1-0.4,0.2-0.9,0.2-1.5
	c0.1-0.6,0.1-1.2,0.1-1.9c0-2.9-0.6-5.4-1.7-7.6c-1.1-2.2-2.7-3.9-4.8-5.1c-2.1-1.2-4.7-1.9-7.7-1.9
	C236.7,93.7,234.1,94.4,231.8,95.6"/>
<path class="st1" d="M277.7,95.8c-2.3,1.4-4.3,3.3-5.8,5.8h-0.2l-0.5-7.2H266v30.8h6.2v-17.5c1.7-3.1,3.6-5.3,5.7-6.5
	c2.1-1.3,4.2-1.9,6.4-1.9c1.2,0,2.1,0.1,2.9,0.2c0.8,0.1,1.7,0.4,2.7,0.8l1.4-5.3c-0.9-0.4-1.9-0.7-2.8-0.9c-1-0.2-2-0.3-3.2-0.3
	C282.6,93.7,280,94.4,277.7,95.8"/>
<linearGradient id="SVGID_00000066513081529289250270000007169975355412635014_" gradientUnits="userSpaceOnUse" x1="294.7668" y1="102.6989" x2="320.8069" y2="102.6989">
	<stop  offset="0" style="stop-color:#F20500"/>
	<stop  offset="2.272730e-04" style="stop-color:#F20500"/>
	<stop  offset="1" style="stop-color:#D90575"/>
</linearGradient>
<polygon style="fill:url(#SVGID_00000066513081529289250270000007169975355412635014_);" points="315.4,75.3 294.8,130.1 
	300.2,130.1 320.8,75.3 "/>
<linearGradient id="SVGID_00000113318128356825135260000014571431030228372360_" gradientUnits="userSpaceOnUse" x1="326.9058" y1="104.3563" x2="350.6182" y2="104.3563">
	<stop  offset="0" style="stop-color:#F20500"/>
	<stop  offset="2.272730e-04" style="stop-color:#F20500"/>
	<stop  offset="1" style="stop-color:#D90575"/>
</linearGradient>
<polygon style="fill:url(#SVGID_00000113318128356825135260000014571431030228372360_);" points="326.9,86.2 326.9,92.1 
	345.3,104.2 345.3,104.5 326.9,116.6 326.9,122.5 350.6,106.6 350.6,102.1 "/>
</svg>
