<svg xmlns="http://www.w3.org/2000/svg" xml:space="preserve" id="Ebene_1" x="0" y="0" style="enable-background:new 0 0 381.5 142.1" version="1.1" viewBox="0 0 381.5 142.1"><style>.st1{fill:#fff}</style><linearGradient id="SVGID_1_" x1="12.436" x2="36.149" y1="43.206" y2="43.206" gradientUnits="userSpaceOnUse"><stop offset="0" style="stop-color:#f20500"/><stop offset="0" style="stop-color:#f20500"/><stop offset="1" style="stop-color:#d90575"/></linearGradient><path d="M12.4 40.9v4.6l23.7 15.8v-5.8L17.8 43.3v-.2l18.3-12.2v-5.8z" style="fill:url(#SVGID_1_)"/><path d="M57.7 59.4c-.9-.3-1.7-.8-2.2-1.4-.6-.6-.8-1.5-.8-2.5 0-1.3.5-2.4 1.4-3.3.9-.9 2.5-1.7 4.8-2.4 2.3-.6 5.4-1.1 9.5-1.4v7.3c-1.6 1.3-3.1 2.3-4.7 3-1.6.7-3.2 1.1-4.8 1.1-1.3.1-2.3-.1-3.2-.4m.7-26.2c-1.7.4-3.3 1-4.7 1.7-1.5.7-2.8 1.4-3.9 2l2.3 4.2c1-.6 2.1-1.2 3.2-1.7s2.3-1 3.5-1.3c1.2-.3 2.5-.5 3.7-.5 1.8 0 3.3.3 4.4.9 1.1.6 1.9 1.4 2.5 2.5.5 1 .8 2.2.8 3.5-7.7.6-13.3 1.8-16.6 3.6-3.4 1.8-5.1 4.4-5.1 7.9 0 1.8.5 3.4 1.4 4.7.9 1.3 2.1 2.3 3.7 3.1 1.6.7 3.3 1.1 5.3 1.1 2.1 0 4.2-.5 6.2-1.4 2.1-.9 3.9-2 5.5-3.3h.2l.5 4h5.1V45.6c0-2.7-.5-5.1-1.4-7-1-1.9-2.4-3.4-4.3-4.5-1.9-1-4.3-1.6-7.1-1.6-1.7.1-3.5.3-5.2.7M80.5 19.5v5h10.2v28.8c0 3.7.9 6.5 2.7 8.5 1.8 2 4.4 3 7.8 3 1.8 0 3.3-.2 4.5-.5 1.3-.4 2.6-.8 4-1.2l-1.5-4.7c-1.1.5-2.1.8-3 1-.9.2-1.7.3-2.5.3-1.7 0-3.1-.5-4.2-1.4-1.1-.9-1.6-2.5-1.6-4.6V19.5H80.5zM124.2 42.5c.9-1.7 2.1-2.9 3.6-3.8 1.5-.8 3.1-1.3 4.9-1.3 2.6 0 4.7.8 6.2 2.5 1.3 1.4 2 3.4 2.2 5.9h-17.9c.1-1.1.5-2.3 1-3.3m.6-8c-2.4 1.3-4.3 3.1-5.8 5.5s-2.3 5.3-2.3 8.6c0 3.4.8 6.4 2.3 8.8 1.5 2.4 3.5 4.2 6 5.5 2.5 1.3 5.3 1.9 8.4 1.9 2.4 0 4.6-.3 6.6-1s3.8-1.6 5.4-2.6l-2.3-4c-1.4.8-2.8 1.5-4.2 2-1.4.5-3 .7-4.8.7-2.2 0-4.1-.4-5.8-1.3-1.7-.8-3-2.1-4-3.8-.7-1.2-1.2-2.7-1.4-4.4h23.4c.1-.4.2-.9.2-1.5.1-.6.1-1.2.1-1.9 0-2.9-.6-5.4-1.7-7.6-1.1-2.2-2.7-3.9-4.8-5.1-2.1-1.2-4.7-1.9-7.7-1.9-2.6.2-5.2.8-7.6 2.1M177.1 33.3l-4.1 6.2c-.5.8-1 1.7-1.6 2.6-.6.9-1.1 1.8-1.7 2.6h-.3c-.5-.8-1.1-1.7-1.7-2.6-.6-.9-1.2-1.8-1.7-2.6l-4.5-6.3h-6.8L165.3 48l-11.4 16h6.6l4.5-6.5c.6-1 1.2-1.9 1.8-2.8l1.8-2.7h.2c.7.9 1.3 1.8 2 2.8.7 1 1.3 1.9 1.9 2.8l4.9 6.5h6.8L173 48.7l10.7-15.4h-6.6zM201 59.4c-.9-.3-1.7-.8-2.2-1.4-.6-.6-.8-1.5-.8-2.5 0-1.3.5-2.4 1.4-3.3.9-.9 2.5-1.7 4.8-2.4 2.3-.6 5.4-1.1 9.5-1.4v7.3c-1.6 1.3-3.1 2.3-4.7 3-1.6.7-3.2 1.1-4.8 1.1-1.3.1-2.3-.1-3.2-.4m.8-26.2c-1.7.4-3.3 1-4.7 1.7-1.5.7-2.8 1.4-3.9 2l2.3 4.2c1-.6 2.1-1.2 3.2-1.7s2.3-1 3.5-1.3c1.2-.3 2.5-.5 3.7-.5 1.8 0 3.3.3 4.4.9 1.1.6 1.9 1.4 2.5 2.5.5 1 .8 2.2.8 3.5-7.7.6-13.3 1.8-16.6 3.6-3.4 1.8-5.1 4.4-5.1 7.9 0 1.8.4 3.4 1.4 4.7.9 1.3 2.1 2.3 3.7 3.1 1.6.7 3.3 1.1 5.3 1.1 2.1 0 4.2-.5 6.2-1.4 2.1-.9 3.9-2 5.5-3.3h.2l.5 4h5.1V45.6c0-2.7-.5-5.1-1.4-7-1-1.9-2.4-3.4-4.3-4.5-1.9-1-4.3-1.6-7.1-1.6-1.8.1-3.5.3-5.2.7M241.2 34.2c-1.8 1.1-3.5 2.5-5 4.1h-.2l-.5-5h-5.1v30.8h6.2V42.9c1.6-1.6 3-2.9 4.3-3.7 1.3-.8 2.8-1.2 4.4-1.2 2.3 0 4 .6 4.9 1.9 1 1.3 1.5 3.3 1.5 5.9V64h6.2V45c0-4-.8-7.1-2.5-9.2-1.7-2.2-4.3-3.2-7.9-3.2-2.4 0-4.5.5-6.3 1.6M274.7 56.8c-1.5-1.9-2.2-4.6-2.2-8.1 0-2.2.4-4.2 1.2-5.8.8-1.6 1.9-2.9 3.2-3.8 1.3-.9 2.8-1.3 4.4-1.3 1.2 0 2.4.2 3.6.7 1.2.5 2.4 1.3 3.6 2.4v14.6c-1.2 1.4-2.5 2.4-3.7 3.1-1.3.7-2.6 1-4 1-2.6.1-4.6-.9-6.1-2.8m13.8-37.3v11.4l.3 5.5h-.2c-1.2-1.2-2.5-2.2-4-2.8-1.4-.7-3-1-4.8-1-2.3 0-4.6.7-6.7 2-2.1 1.3-3.8 3.2-5.1 5.6-1.3 2.4-2 5.3-2 8.6 0 5.1 1.2 9 3.6 11.9 2.4 2.8 5.6 4.2 9.6 4.2 1.8 0 3.6-.5 5.3-1.4 1.7-.9 3.1-2 4.3-3.2h.2l.5 3.8h5.1V19.5h-6.1zM311.8 42.5c.9-1.7 2.1-2.9 3.6-3.8 1.5-.8 3.1-1.3 4.9-1.3 2.6 0 4.7.8 6.2 2.5 1.3 1.4 2 3.4 2.2 5.9h-17.9c.2-1.1.5-2.3 1-3.3m.6-8c-2.4 1.3-4.3 3.1-5.8 5.5s-2.3 5.3-2.3 8.6c0 3.4.8 6.4 2.3 8.8 1.5 2.4 3.5 4.2 6 5.5 2.5 1.3 5.3 1.9 8.4 1.9 2.4 0 4.6-.3 6.6-1s3.8-1.6 5.4-2.6l-2.3-4c-1.4.8-2.8 1.5-4.2 2-1.4.5-3 .7-4.8.7-2.2 0-4.1-.4-5.8-1.3-1.7-.8-3-2.1-4-3.8-.7-1.2-1.2-2.7-1.4-4.4H334c.1-.4.2-.9.2-1.5.1-.6.1-1.2.1-1.9 0-2.9-.6-5.4-1.7-7.6-1.1-2.2-2.7-3.9-4.8-5.1-2.1-1.2-4.7-1.9-7.7-1.9-2.7.2-5.3.8-7.7 2.1M356.4 34.7c-2.3 1.4-4.3 3.3-5.8 5.8h-.2l-.5-7.2h-5.2v30.8h6.2V46.6c1.7-3.1 3.6-5.3 5.7-6.5 2.1-1.3 4.2-1.9 6.4-1.9 1.2 0 2.1.1 2.9.2.8.1 1.7.4 2.7.8l1.4-5.3c-.9-.4-1.9-.7-2.8-.9-1-.2-2-.3-3.2-.3-2.8-.1-5.3.6-7.6 2M48.5 80.6v5h10.3v28.8c0 3.7.9 6.5 2.7 8.5 1.8 2 4.4 3 7.8 3 1.8 0 3.3-.2 4.5-.5 1.3-.4 2.6-.8 4-1.2l-1.5-4.7c-1.1.5-2.1.8-3 1-.9.2-1.8.3-2.5.3-1.7 0-3.1-.5-4.2-1.4-1.1-.9-1.6-2.5-1.6-4.6V80.6H48.5zM80.5 94.5v5h13.8v25.7h6.2V94.5h-20zm13-13.7c-.9.8-1.3 1.9-1.3 3.2s.4 2.4 1.3 3.2c.9.8 2 1.2 3.3 1.2s2.5-.4 3.3-1.2c.9-.8 1.3-1.9 1.3-3.2s-.4-2.4-1.3-3.2c-.9-.8-2-1.2-3.3-1.2s-2.4.4-3.3 1.2M119.9 95.6c-2.6 1.3-4.7 3.1-6.3 5.5-1.6 2.4-2.4 5.3-2.4 8.7 0 3.4.7 6.3 2.2 8.7 1.5 2.4 3.5 4.2 6.1 5.5 2.6 1.3 5.4 1.9 8.6 1.9 2.3 0 4.5-.4 6.6-1.2 2.1-.8 4-2 5.8-3.5l-2.7-4c-1.2 1-2.6 1.9-4.1 2.6-1.5.7-3.2 1.1-5 1.1-2.2 0-4.1-.5-5.8-1.4-1.7-.9-2.9-2.2-3.9-3.8-.9-1.6-1.4-3.6-1.4-5.8 0-2.2.5-4.1 1.4-5.8.9-1.7 2.3-2.9 4-3.9 1.7-.9 3.6-1.4 5.8-1.4 1.5 0 2.9.3 4.2.8 1.3.6 2.5 1.4 3.8 2.4l3-4c-1.3-1.2-2.8-2.3-4.7-3.1-1.9-.9-4.1-1.3-6.6-1.3-3.1.1-6 .8-8.6 2M149.7 80.6v44.6h6.2V104c1.6-1.6 3-2.9 4.3-3.7 1.3-.8 2.8-1.2 4.4-1.2 2.3 0 4 .6 4.9 1.9 1 1.3 1.5 3.3 1.5 5.9v18.2h6.2V106c0-4-.8-7.1-2.5-9.2-1.7-2.2-4.3-3.2-7.9-3.2-2.3 0-4.4.6-6.2 1.7-1.8 1.1-3.4 2.4-4.9 4h-.2l.4-6.9V80.6h-6.2zM195.4 84.8l-.9 9.7-8.6.3v4.7h8.4V113c0 2.6.4 4.9 1.2 6.8.8 1.9 2 3.4 3.8 4.5 1.8 1.1 4.2 1.6 7.3 1.6 1.9 0 3.7-.2 5.3-.5 1.6-.4 3-.8 4.4-1.2l-1.3-4.5c-1 .4-2.1.7-3.3.9-1.1.2-2.4.3-3.8.3-1.9 0-3.4-.3-4.5-.8-1.1-.6-1.9-1.4-2.3-2.6-.5-1.2-.7-2.6-.7-4.4V99.5H215v-5h-14.5v-9.7h-5.1zM231.2 103.7c.9-1.7 2.1-2.9 3.6-3.8 1.5-.8 3.1-1.3 4.9-1.3 2.6 0 4.7.8 6.2 2.5 1.3 1.4 2 3.4 2.2 5.9H230c.3-1.2.6-2.3 1.2-3.3m.6-8.1c-2.4 1.3-4.3 3.1-5.9 5.5-1.5 2.4-2.3 5.3-2.3 8.6 0 3.4.8 6.4 2.3 8.8 1.5 2.4 3.5 4.2 6 5.5 2.5 1.3 5.3 1.9 8.4 1.9 2.4 0 4.6-.3 6.6-1s3.8-1.6 5.4-2.6l-2.3-4c-1.4.8-2.8 1.5-4.2 2-1.4.5-3 .7-4.8.7-2.2 0-4.1-.4-5.8-1.3-1.7-.8-3-2.1-4-3.8-.7-1.2-1.2-2.7-1.4-4.4h23.4c.1-.4.2-.9.2-1.5.1-.6.1-1.2.1-1.9 0-2.9-.6-5.4-1.7-7.6-1.1-2.2-2.7-3.9-4.8-5.1-2.1-1.2-4.7-1.9-7.7-1.9-2.6.2-5.2.9-7.5 2.1M277.7 95.8c-2.3 1.4-4.3 3.3-5.8 5.8h-.2l-.5-7.2H266v30.8h6.2v-17.5c1.7-3.1 3.6-5.3 5.7-6.5 2.1-1.3 4.2-1.9 6.4-1.9 1.2 0 2.1.1 2.9.2.8.1 1.7.4 2.7.8l1.4-5.3c-.9-.4-1.9-.7-2.8-.9-1-.2-2-.3-3.2-.3-2.7-.1-5.3.6-7.6 2" class="st1"/><linearGradient id="SVGID_00000066513081529289250270000007169975355412635014_" x1="294.767" x2="320.807" y1="102.699" y2="102.699" gradientUnits="userSpaceOnUse"><stop offset="0" style="stop-color:#f20500"/><stop offset="0" style="stop-color:#f20500"/><stop offset="1" style="stop-color:#d90575"/></linearGradient><path d="m315.4 75.3-20.6 54.8h5.4l20.6-54.8z" style="fill:url(#SVGID_00000066513081529289250270000007169975355412635014_)"/><linearGradient id="SVGID_00000113318128356825135260000014571431030228372360_" x1="326.906" x2="350.618" y1="104.356" y2="104.356" gradientUnits="userSpaceOnUse"><stop offset="0" style="stop-color:#f20500"/><stop offset="0" style="stop-color:#f20500"/><stop offset="1" style="stop-color:#d90575"/></linearGradient><path d="M326.9 86.2v5.9l18.4 12.1v.3l-18.4 12.1v5.9l23.7-15.9v-4.5z" style="fill:url(#SVGID_00000113318128356825135260000014571431030228372360_)"/></svg>